<?xml version="1.0" encoding="UTF-8"?> <svg xmlns="http://www.w3.org/2000/svg" width="142" height="27" viewBox="0 0 142 27" fill="none"><path d="M0.0579698 13.8571C0.0579698 9.91963 0.0508222 5.98213 0.0686935 2.04463C0.0686935 1.65052 -0.172569 1.07011 0.249194 0.892759C0.735294 0.688539 0.967621 1.31016 1.25356 1.60395C3.54645 3.9471 6.16103 5.7385 9.38859 6.52313C12.5911 7.30239 15.6489 6.7596 18.6102 5.47516C21.1443 4.37703 23.3729 2.79702 25.437 0.976954C25.7266 0.720784 26.0143 0.461031 26.3056 0.206652C26.4629 0.068714 26.6469 -0.105052 26.8489 0.0812538C27.1152 0.326676 26.8667 0.51119 26.7077 0.672416C25.8284 1.56274 24.9438 2.4477 24.0592 3.33265C17.663 9.73332 11.2633 16.1322 4.86893 22.5329C3.58577 23.8173 2.31869 25.1179 1.03196 26.4005C0.813928 26.6173 0.615556 27.0078 0.242046 26.8412C-0.0921482 26.6925 0.0633323 26.3074 0.0633323 26.0261C0.0543967 21.9686 0.0579698 17.9129 0.0579698 13.8553V13.8571Z" fill="#323232"></path><path d="M43.8256 26.5385C42.7247 26.5385 41.622 26.542 40.5212 26.5349C40.3013 26.5349 40.0065 26.6065 40.0011 26.2285C39.9975 25.9168 40.2531 25.9652 40.4443 25.915C41.9544 25.5138 42.2332 25.0605 41.7614 23.5343C41.3575 22.2265 40.8464 20.9511 40.4139 19.6523C40.2763 19.2385 40.0476 19.1131 39.6276 19.1167C37.483 19.1328 35.3403 19.1346 33.1957 19.1167C32.765 19.1131 32.5613 19.2743 32.4201 19.672C31.9697 20.9349 31.4532 22.1746 31.0208 23.4429C30.5025 24.9656 30.8492 25.5371 32.3772 25.881C32.6256 25.9365 33.0724 25.804 33.0188 26.2841C32.9741 26.6836 32.6006 26.5295 32.3665 26.5313C30.7884 26.5456 29.2104 26.5456 27.6324 26.5313C27.3982 26.5295 27.0444 26.6818 26.9747 26.2823C26.9068 25.89 27.2606 25.8792 27.5001 25.8237C29.0406 25.4636 29.3909 24.1021 29.8484 22.9109C32.1735 16.8774 34.4431 10.8243 36.7432 4.78189C36.8522 4.49705 36.8397 4.03308 37.2453 4.02054C37.6671 4.008 37.66 4.47914 37.7654 4.76218C40.0047 10.7634 42.2297 16.7717 44.46 22.7765C44.6048 23.167 44.762 23.5558 44.9372 23.932C45.3965 24.9137 46.013 25.7252 47.18 25.9025C47.4195 25.9383 47.6876 25.9634 47.6304 26.3092C47.5803 26.6083 47.3176 26.5331 47.1282 26.5349C46.0273 26.542 44.9247 26.5385 43.8238 26.5385H43.8256ZM36.4769 9.01855C35.3671 11.917 34.3305 14.6221 33.294 17.3271C33.2618 17.4095 33.2332 17.4955 33.1993 17.5779C33.0063 18.0293 33.3333 18.0006 33.6014 18.0024C35.4707 18.006 37.3418 17.9971 39.2112 18.0096C39.683 18.0132 39.7723 17.8609 39.6061 17.4256C39.1719 16.2881 38.7805 15.1362 38.3552 13.9951C37.76 12.3953 37.1506 10.801 36.4787 9.01855H36.4769Z" fill="#323232"></path><path d="M87.0581 14.3766C87.9106 13.3734 88.5986 12.5225 89.5172 11.9045C91.4241 10.6218 93.4346 11.1987 94.3568 13.2839C94.8035 14.296 94.8804 15.3583 94.8875 16.4349C94.9 18.6724 94.8875 20.9099 94.8983 23.1473C94.9 23.6238 94.9429 24.1003 94.9876 24.5733C95.0662 25.4009 95.5059 25.8756 96.3512 25.9545C96.5621 25.9742 96.8856 25.8738 96.8891 26.2482C96.8945 26.6316 96.5764 26.5331 96.3619 26.5349C94.5766 26.542 92.7894 26.542 91.0041 26.5349C90.7914 26.5349 90.468 26.6406 90.4429 26.2805C90.4179 25.9132 90.7414 26.001 90.9594 25.967C92.1014 25.7878 92.5267 25.3615 92.5375 24.2007C92.5625 21.5458 92.5428 18.891 92.5321 16.2361C92.5321 15.9405 92.4678 15.6431 92.4302 15.3476C92.1032 12.7662 90.2142 12.8701 88.8077 13.7228C87.6908 14.3999 86.9026 15.2455 87.0116 16.8093C87.1761 19.1543 87.0385 21.5207 87.076 23.8764C87.0992 25.4099 87.3155 25.632 88.7952 25.9616C88.9739 26.001 89.1651 25.9974 89.1705 26.2393C89.1776 26.551 88.9382 26.5349 88.7326 26.5349C86.8865 26.5384 85.0422 26.5384 83.1961 26.5349C83.0013 26.5349 82.7386 26.5796 82.7404 26.2608C82.7422 25.9616 82.9852 25.9777 83.1925 25.9688C84.1951 25.9258 84.6187 25.3113 84.6508 24.3977C84.7634 21.1177 84.7974 17.8358 84.6205 14.5576C84.5615 13.463 84.3059 13.3394 83.0799 13.4935C82.8297 13.5257 82.6761 13.5078 82.5903 13.2695C82.5045 13.0331 82.6814 12.956 82.8441 12.8808C83.9807 12.3649 85.1137 11.8382 86.2593 11.3402C86.7793 11.1145 87.1046 11.2005 87.0653 11.8937C87.0224 12.6336 87.0563 13.3788 87.0563 14.373L87.0581 14.3766Z" fill="#323232"></path><path d="M126.638 24.4927C125.909 25.0749 125.238 25.6517 124.525 26.173C122.661 27.5399 120.476 26.8752 119.673 24.7184C118.892 22.6207 119.625 20.5552 121.621 19.2116C123.012 18.2765 124.531 17.5904 126.073 16.9688C126.586 16.7628 126.743 16.5048 126.718 15.9835C126.682 15.2365 126.654 14.4931 126.436 13.7729C126.093 12.6408 125.044 12.0138 123.873 12.2252C122.788 12.4204 122.224 13.1836 122.24 14.4214C122.243 14.7492 122.266 15.0824 122.216 15.4031C122.113 16.0588 121.775 16.5353 121.046 16.5012C120.342 16.4672 119.999 15.9979 119.907 15.3386C119.68 13.6977 121.103 11.8436 122.912 11.4387C124.088 11.1754 125.276 11.1754 126.456 11.4352C127.948 11.7648 128.906 12.8504 128.965 14.5002C129.052 16.9419 129.018 19.389 129.047 21.8342C129.056 22.549 129.097 23.2638 129.138 23.9768C129.158 24.3189 129.258 24.6432 129.622 24.7578C129.98 24.8707 130.244 24.6521 130.494 24.43C130.754 24.1989 130.897 23.8388 131.259 23.7045C131.368 25.1304 129.286 27.0526 127.926 26.7982C127.313 26.6836 127.049 26.2178 126.884 25.6929C126.772 25.3293 126.729 24.9441 126.64 24.4927H126.638ZM126.711 17.671C126.121 17.9308 125.682 18.1027 125.262 18.3159C124.681 18.6133 124.084 18.8963 123.551 19.269C122.871 19.7455 122.245 20.2918 121.972 21.141C121.528 22.506 121.872 23.9642 122.824 24.627C123.694 25.2325 124.568 25.0803 125.884 24.0359C126.234 23.7582 126.722 23.5719 126.716 22.9736C126.7 21.2484 126.711 19.5233 126.711 17.6692V17.671Z" fill="#323232"></path><path d="M109.939 23.5361C110.187 24.2007 109.973 24.559 109.69 24.9244C109.178 25.5926 108.638 26.2357 107.882 26.6263C106.826 27.1708 105.912 26.7499 105.603 25.5998C105.512 25.2612 105.469 24.9101 105.387 24.4748C104.715 25.0247 104.109 25.5425 103.48 26.0279C101.273 27.728 98.7532 26.7499 98.2278 24.0108C97.8203 21.888 98.7014 20.3599 100.394 19.1991C101.777 18.2497 103.31 17.5833 104.851 16.9509C105.316 16.761 105.498 16.5389 105.469 16.0391C105.432 15.353 105.425 14.6669 105.251 13.9969C104.913 12.6963 103.92 12.0138 102.669 12.2162C101.516 12.4025 100.962 13.1764 100.998 14.554C101 14.6436 101.007 14.7331 101.007 14.8227C101.012 15.8886 100.578 16.5102 99.8308 16.5084C99.0552 16.5084 98.5584 15.7793 98.6281 14.7457C98.7282 13.2552 100.185 11.7093 101.804 11.4047C102.806 11.2148 103.813 11.1951 104.824 11.3671C106.62 11.6734 107.651 12.7232 107.719 14.5665C107.807 16.9222 107.769 19.2815 107.8 21.639C107.809 22.4147 107.846 23.1903 107.889 23.9642C107.907 24.2992 107.982 24.6378 108.357 24.7542C108.716 24.8653 108.995 24.679 109.22 24.421C109.453 24.1577 109.664 23.8765 109.941 23.5325L109.939 23.5361ZM105.459 17.6585C103.872 18.384 102.336 18.9411 101.23 20.2274C100.258 21.3595 100.265 23.2978 101.234 24.3368C102.1 25.2666 103.225 25.1824 104.631 24.0341C104.956 23.769 105.453 23.5988 105.455 23.0578C105.462 21.304 105.457 19.552 105.457 17.6567L105.459 17.6585Z" fill="#323232"></path><path d="M76.8805 17.2303C75.6295 17.2303 74.3785 17.25 73.1275 17.2214C72.577 17.2088 72.3215 17.3271 72.3733 17.9648C72.5216 19.7508 72.8576 21.4527 74.0997 22.8464C75.7224 24.6665 77.9831 24.9011 79.6309 23.3981C80.2403 22.841 80.5316 22.0779 80.8801 21.3524C80.9533 21.2001 80.9176 20.8561 81.2411 20.9833C81.4734 21.0747 81.4323 21.3129 81.3912 21.5315C81.0391 23.3856 80.2117 24.9853 78.7105 26.1426C76.6374 27.7423 73.6172 27.0293 71.8282 24.6467C69.7695 21.9059 69.8642 15.4425 72.4645 12.9023C74.0103 11.3922 76.4819 10.7562 78.3834 11.5874C80.1813 12.3739 81.5395 14.7081 81.4573 16.7682C81.4359 17.3145 81.1178 17.225 80.8086 17.2268C79.4986 17.2321 78.1869 17.2286 76.8769 17.2303H76.8805ZM75.4043 16.3311C76.2085 16.3311 77.0127 16.3006 77.8151 16.3418C78.3959 16.3705 78.5568 16.1322 78.4531 15.6055C78.3906 15.2849 78.3709 14.9535 78.2869 14.6382C77.9885 13.5239 77.338 12.7232 76.1853 12.4348C75.0397 12.1463 74.1747 12.6229 73.4259 13.4666C72.8183 14.1473 72.6164 14.9696 72.4376 15.8223C72.3465 16.2594 72.5467 16.3382 72.9041 16.3364C73.7369 16.3293 74.5715 16.3346 75.4043 16.3364V16.3311Z" fill="#323232"></path><path d="M132.896 24.0645C132.896 23.3784 132.889 22.6923 132.902 22.0062C132.905 21.8199 132.805 21.5369 133.102 21.4957C133.397 21.4545 133.389 21.7429 133.434 21.931C133.697 23.013 134.054 24.043 134.857 24.8653C135.259 25.2773 135.698 25.6123 136.24 25.8183C137.543 26.311 138.737 26.0172 139.332 25.0462C139.979 23.9911 139.777 22.6099 138.797 21.7106C138.138 21.1051 137.371 20.6412 136.603 20.1862C135.963 19.8082 135.314 19.4409 134.705 19.0164C132.732 17.6406 132.231 15.1559 133.49 13.0958C134.521 11.4047 136.258 10.8655 138.499 11.5194C139.146 11.7075 139.804 12.1858 140.404 11.3295C140.586 11.0697 140.797 11.3492 140.797 11.6412C140.797 13.0438 140.797 14.4447 140.794 15.8474C140.794 16.014 140.833 16.2397 140.568 16.2451C140.336 16.2504 140.307 16.057 140.266 15.876C140.07 14.9965 139.766 14.1617 139.253 13.4129C138.528 12.3559 137.484 12.0442 136.286 12.209C135.463 12.3219 134.825 12.7948 134.598 13.6171C134.351 14.5092 134.58 15.3386 135.248 15.9979C136.199 16.9312 137.432 17.422 138.565 18.0669C139.739 18.7351 140.863 19.4571 141.416 20.7809C142.734 23.9499 140.377 27.2282 136.96 26.9576C136.192 26.8967 135.425 26.7875 134.687 26.5277C134.246 26.3719 133.826 26.2196 133.373 26.6531C132.984 27.0257 132.898 26.6334 132.896 26.302C132.891 25.5568 132.896 24.8098 132.896 24.0645Z" fill="#323232"></path><path d="M59.3147 24.0986C59.3147 23.382 59.3111 22.6672 59.3183 21.9507C59.3201 21.7877 59.2432 21.553 59.4809 21.5028C59.7883 21.4366 59.7758 21.6963 59.8205 21.8987C60.1028 23.176 60.6068 24.335 61.629 25.2075C61.9257 25.46 62.2402 25.6678 62.6137 25.8058C64.0488 26.336 65.2676 25.9867 65.8699 24.851C66.4596 23.7385 66.0486 22.2355 64.8316 21.3953C63.6824 20.6018 62.4672 19.9049 61.293 19.1453C58.7625 17.508 58.523 13.9969 60.8105 12.0478C62.0436 10.9981 63.4573 11.1557 64.878 11.514C65.5429 11.6806 66.1844 12.1589 66.7938 11.3384C66.9833 11.0823 67.2102 11.3187 67.2102 11.625C67.2102 13.0564 67.2102 14.4895 67.2067 15.9208C67.2067 16.0695 67.1852 16.2325 66.9904 16.2469C66.8099 16.2594 66.7384 16.1161 66.692 15.971C66.5311 15.4586 66.4007 14.9373 66.2184 14.434C65.6769 12.9471 64.4634 12.0819 63.048 12.1625C62.108 12.2162 61.3663 12.6336 61.0178 13.5239C60.6836 14.3748 60.9267 15.1756 61.5164 15.8474C62.4064 16.8595 63.6628 17.3271 64.7923 17.9756C65.777 18.5416 66.751 19.097 67.4158 20.0661C68.4023 21.5064 68.4916 23.0309 67.7249 24.5554C66.9386 26.1193 65.6054 26.9433 63.8433 26.9702C62.8586 26.9845 61.8917 26.8 60.9517 26.4883C60.555 26.3575 60.1832 26.2411 59.8044 26.628C59.4398 27.0006 59.3093 26.723 59.3093 26.3378C59.3093 25.5926 59.3093 24.8456 59.3093 24.1004L59.3147 24.0986Z" fill="#323232"></path><path d="M115.566 14.1957C115.566 17.3271 115.563 20.4584 115.57 23.5898C115.574 25.3705 115.658 25.4744 117.373 25.9652C117.568 26.0207 117.716 26.0781 117.691 26.302C117.663 26.5474 117.457 26.5367 117.286 26.5367C115.441 26.5402 113.597 26.5402 111.753 26.5367C111.549 26.5367 111.308 26.5564 111.317 26.2411C111.324 25.9992 111.502 25.976 111.69 25.9652C112.804 25.9061 113.123 25.1644 113.184 24.2096C113.209 23.8227 113.231 23.4357 113.231 23.0488C113.234 18.4557 113.238 13.8643 113.227 9.27114C113.225 8.37723 113.2 7.47973 113.111 6.5912C113.023 5.72774 112.621 5.46799 111.774 5.61847C111.553 5.65788 111.306 5.8406 111.161 5.51457C111.015 5.18137 111.302 5.10254 111.506 5.00939C112.559 4.52213 113.613 4.04204 114.671 3.5709C115.273 3.30398 115.586 3.3828 115.577 4.17818C115.543 7.51735 115.563 10.8583 115.565 14.1975L115.566 14.1957Z" fill="#323232"></path><path d="M52.7291 14.2602C53.3814 13.4541 53.8711 12.5781 54.6145 11.8902C55.7797 10.8135 57.4829 11.1342 57.8653 12.5207C58.0637 13.2391 57.9261 13.9145 57.2773 14.3462C56.6733 14.7475 56.1461 14.4196 55.6618 14.0219C54.6574 13.1961 54.3411 13.2337 53.6226 14.2889C53.0275 15.1631 52.6576 16.0785 52.7041 17.1963C52.7845 19.1024 52.7166 21.0138 52.7291 22.9234C52.7398 24.3834 52.8041 25.8255 54.7736 25.976C54.9558 25.9903 55.0309 26.1175 55.0184 26.2805C55.0005 26.5241 54.8057 26.5331 54.627 26.5331C53.9425 26.5385 53.2581 26.5385 52.5736 26.5385C51.3244 26.5385 50.0734 26.5402 48.8242 26.5349C48.6294 26.5349 48.3685 26.5958 48.3399 26.2895C48.3131 26.001 48.5347 26.001 48.7491 25.9509C50.1663 25.6177 50.3736 25.3866 50.379 23.966C50.3915 21.1016 50.3772 18.2389 50.3701 15.3744C50.3701 15.1666 50.3611 14.957 50.3433 14.7492C50.2378 13.5365 49.9447 13.2946 48.7616 13.4666C48.5561 13.4971 48.3488 13.6153 48.2523 13.3197C48.1612 13.0438 48.3595 12.9543 48.5561 12.8647C49.6659 12.3631 50.774 11.8526 51.8891 11.3599C52.4539 11.1109 52.7827 11.1969 52.738 11.9367C52.6915 12.7088 52.7273 13.4845 52.7273 14.2584L52.7291 14.2602Z" fill="#323232"></path></svg> 